<svg width="14" height="22" viewBox="0 0 14 22" fill="none" xmlns="http://www.w3.org/2000/svg">
<path d="M7.5 4C7.5 3.72386 7.27614 3.5 7 3.5C6.72386 3.5 6.5 3.72386 6.5 4V7C6.5 7.27614 6.72386 7.5 7 7.5C7.27614 7.5 7.5 7.27614 7.5 7V4Z" fill="#2E2E2E"/>
<path fill-rule="evenodd" clip-rule="evenodd" d="M0 7C0 6.07116 0 5.60674 0.0513308 5.21684C0.405792 2.52444 2.52444 0.405792 5.21684 0.0513308C5.60674 0 6.07116 0 7 0C7.92884 0 8.39326 0 8.78316 0.0513308C11.4756 0.405792 13.5942 2.52444 13.9487 5.21684C14 5.60674 14 6.07116 14 7V15C14 15.9288 14 16.3933 13.9487 16.7832C13.5942 19.4756 11.4756 21.5942 8.78316 21.9487C8.39326 22 7.92884 22 7 22C6.07116 22 5.60674 22 5.21684 21.9487C2.52444 21.5942 0.405792 19.4756 0.0513308 16.7832C0 16.3933 0 15.9288 0 15V7ZM13 7V15C13 15.9606 12.9978 16.3441 12.9572 16.6526C12.6618 18.8963 10.8963 20.6618 8.65263 20.9572C8.3441 20.9978 7.96063 21 7 21C6.03937 21 5.6559 20.9978 5.34737 20.9572C3.1037 20.6618 1.33816 18.8963 1.04278 16.6526C1.00216 16.3441 1 15.9606 1 15V7C1 6.03937 1.00216 5.6559 1.04278 5.34737C1.33816 3.1037 3.1037 1.33816 5.34737 1.04278C5.6559 1.00216 6.03937 1 7 1C7.96063 1 8.3441 1.00216 8.65263 1.04278C10.8963 1.33816 12.6618 3.1037 12.9572 5.34737C12.9978 5.6559 13 6.03937 13 7Z" fill="#2E2E2E"/>
</svg>
