<svg width="12" height="12" viewBox="0 0 12 12" fill="none" xmlns="http://www.w3.org/2000/svg">
<path fill-rule="evenodd" clip-rule="evenodd" d="M9.41677 7.6768C10.1523 8.08554 10.8883 8.49437 11.6238 8.90313C11.9403 9.07891 12.0792 9.45191 11.9546 9.7921C11.3218 11.5209 9.46837 12.4335 7.72446 11.797C4.1535 10.4936 1.50656 7.84652 0.203022 4.27555C-0.433489 2.53166 0.479095 0.678227 2.20792 0.0454222C2.54811 -0.0792188 2.9211 0.0596524 3.09732 0.376247C3.50565 1.11178 3.91448 1.84775 4.32322 2.58324C4.51482 2.9283 4.46979 3.33787 4.20753 3.63252C3.86409 4.019 3.52071 4.40539 3.17726 4.79146C3.91037 6.57671 5.42325 8.08963 7.20852 8.82273C7.59459 8.47928 7.98098 8.1359 8.36746 7.79245C8.66254 7.5302 9.07177 7.48516 9.41674 7.67677L9.41677 7.6768Z" fill="white"/>
</svg>
